<svg id="visual" viewBox="0 0 900 600" width="900" height="600" xmlns="http://www.w3.org/2000/svg" xmlns:xlink="http://www.w3.org/1999/xlink" version="1.1"><rect width="900" height="600" fill="#001829"></rect><g><g transform="translate(821 320)"><path d="M0 -68.6L59.4 -34.3L59.4 34.3L0 68.6L-59.4 34.3L-59.4 -34.3Z" fill="none" stroke="#297EA6" stroke-width="2"></path></g><g transform="translate(192 464)"><path d="M0 -62L53.7 -31L53.7 31L0 62L-53.7 31L-53.7 -31Z" fill="none" stroke="#297EA6" stroke-width="2"></path></g><g transform="translate(628 479)"><path d="M0 -62L53.7 -31L53.7 31L0 62L-53.7 31L-53.7 -31Z" stroke="#297EA6" fill="none" stroke-width="2"></path></g><g transform="translate(289 19)"><path d="M0 -65L56.3 -32.5L56.3 32.5L0 65L-56.3 32.5L-56.3 -32.5Z" stroke="#297EA6" fill="none" stroke-width="2"></path></g><g transform="translate(801 517)"><path d="M0 -65L56.3 -32.5L56.3 32.5L0 65L-56.3 32.5L-56.3 -32.5Z" stroke="#297EA6" fill="none" stroke-width="2"></path></g><g transform="translate(726 54)"><path d="M0 -53L45.9 -26.5L45.9 26.5L0 53L-45.9 26.5L-45.9 -26.5Z" stroke="#297EA6" fill="none" stroke-width="2"></path></g><g transform="translate(46 548)"><path d="M0 -63L54.6 -31.5L54.6 31.5L0 63L-54.6 31.5L-54.6 -31.5Z" stroke="#297EA6" fill="none" stroke-width="2"></path></g></g></svg>